<?xml version="1.0" encoding="UTF-8"?>
<svg xmlns="http://www.w3.org/2000/svg" viewBox="0 0 60 60" width="2400" height="2400"><circle cx="30" cy="30" r="30" fill="#06c167"/><path d="M28.8 40c0-1.7-1.3-3.1-3-3.1s-3.1 1.3-3.1 3 1.3 3.1 3 3.1c1.7.1 3.1-1.3 3.1-3m2.5-4.9V45h-2.5v-.9c-.9.7-2 1.1-3.2 1.1-3 0-5.3-2.3-5.3-5.2 0-2.9 2.3-5.2 5.3-5.2 1.2 0 2.3.4 3.2 1.1V35c-.1.1 2.5.1 2.5.1zm8.4 7.6h-1.9c-.6 0-.9-.2-.9-.8v-4.6h2.9v-2.2h-2.9v-2.8h-2.5v2.8h-1.9v2.2h1.9v5.2c0 1.3 1 2.4 2.7 2.4h2.7c-.1.1-.1-2.2-.1-2.2zm5.7 2.5c2.9 0 4.6-1.4 4.6-3.3 0-1.3-1-2.3-3-2.8l-2.2-.4c-1.3-.2-1.6-.5-1.6-.9 0-.6.6-1 1.7-1 1.2 0 2.1.3 2.3 1.4h2.5c-.1-2-1.6-3.4-4.7-3.4-2.6 0-4.5 1.1-4.5 3.1 0 1.4 1 2.4 3.2 2.8l2.4.5c1 .2 1.2.4 1.2.8 0 .6-.7 1-1.9 1-1.5 0-2.3-.3-2.6-1.4h-2.5c.4 2.2 2 3.6 5.1 3.6M10 31.6h9.5v2.3h-7v3.3h6.8v2.2h-6.8v3.3h7V45H10V31.6zm39.8-11.5v-1.8h-.7c-1.1 0-1.9.5-2.4 1.3v-1.2h-1.9v9.7h2v-5.5c0-1.5.9-2.5 2.2-2.5h.8zm-14.1 2.3c.3-1.5 1.6-2.5 3-2.5s2.7 1 3 2.5h-6zm3.1-4.2c-2.8 0-5.1 2.2-5.1 5 0 2.9 2.3 5.1 5.2 5.1 1.8 0 3.3-.8 4.3-2.1l-1.4-1c-.7 1-1.7 1.4-2.8 1.4-1.6 0-3-1.2-3.3-2.8h8v-.6c0-2.8-2.1-5-4.9-5m-11.2 8.4c-1.9 0-3.4-1.5-3.3-3.4s1.5-3.4 3.4-3.3c1.8 0 3.3 1.5 3.3 3.4 0 1.8-1.6 3.3-3.4 3.3m-5.3 1.5h1.9v-1.2c.9.9 2.2 1.5 3.5 1.4 2.9 0 5.2-2.3 5.2-5.1s-2.3-5.1-5.2-5.1c-1.3 0-2.6.5-3.5 1.4v-4.8h-2v13.4zm-6.9-1.6c1.9 0 3.3-1.4 3.3-3.5v-8.2h2v13.3h-2v-1.2c-.9.9-2.2 1.5-3.6 1.5-2.9 0-5.1-2.1-5.1-5.2v-8.3h2V23c0 2.2 1.5 3.5 3.4 3.5"/></svg>
